# xmcd CD database file
#
# Track frame offsets:
#	150
#	20350
#	45740
#	76621
#	96960
#	119372
#	140322
#	155114
#	172154
#	189409
#	200892
#	221713
#
# Disc length: 3244 seconds
#
# Revision: 0
# Processed by: cddbd v1.5.1PL0 Copyright (c) Steve Scherf et al.
# Submitted via: CDex 1.51
#
DISCID=aa0caa0c
DTITLE=Ben Harper - Live From Mars CD2
DYEAR=2001
DGENRE=Blues
TTITLE0=Waiting on an angel
TTITLE1=Roses from my friends
TTITLE2=Power of the gospel
TTITLE3=Pleasure and pain
TTITLE4=Please bleed
TTITLE5=The drugs don't work
TTITLE6=In the lord's arms
TTITLE7=Not fire, not ice
TTITLE8=Beloved one
TTITLE9=#3
TTITLE10=Walk away
TTITLE11=Another lonely day
EXTD=YEAR: 2001
EXTT0=
EXTT1=
EXTT2=
EXTT3=
EXTT4=
EXTT5=
EXTT6=
EXTT7=
EXTT8=
EXTT9=
EXTT10=
EXTT11=
PLAYORDER=
